<svg width="19" height="18" viewBox="0 0 19 18" fill="none" xmlns="http://www.w3.org/2000/svg">
<path d="M8.84397 3.67417L5.44317 0.273315C5.379 0.209149 5.29649 0.154164 5.20483 0.117498C5.19566 0.117498 5.18647 0.117489 5.1773 0.108322C5.10397 0.0808221 5.02146 0.0625 4.93896 0.0625C4.75563 0.0625 4.58149 0.135806 4.45315 0.26414L1.04313 3.67417C0.777292 3.94 0.777292 4.38 1.04313 4.64583C1.30896 4.91167 1.74901 4.91167 2.01485 4.64583L4.26063 2.39999V17.25C4.26063 17.6258 4.5723 17.9375 4.94813 17.9375C5.32397 17.9375 5.63563 17.6258 5.63563 17.25V2.40916L7.8723 4.64583C8.0098 4.78333 8.184 4.84747 8.35816 4.84747C8.53233 4.84747 8.70647 4.78333 8.84397 4.64583C9.1098 4.38 9.1098 3.94917 8.84397 3.67417Z" fill="white"/>
<path opacity="0.4" d="M18.5149 13.3542C18.249 13.0883 17.809 13.0883 17.5431 13.3542L15.2974 15.6V0.75C15.2974 0.374167 14.9857 0.0625 14.6099 0.0625C14.234 0.0625 13.9224 0.374167 13.9224 0.75V15.5908L11.6857 13.3542C11.4199 13.0883 10.9799 13.0883 10.714 13.3542C10.4482 13.62 10.4482 14.06 10.714 14.3258L14.1148 17.7267C14.179 17.7909 14.2615 17.8458 14.3532 17.8825C14.3623 17.8825 14.3715 17.8825 14.3807 17.8917C14.454 17.9192 14.5365 17.9375 14.619 17.9375C14.8024 17.9375 14.9765 17.8642 15.1048 17.7359L18.5149 14.3258C18.7807 14.0508 18.7807 13.62 18.5149 13.3542Z" fill="white"/>
</svg>
