<svg width="19" height="17" viewBox="0 0 19 17" fill="none" xmlns="http://www.w3.org/2000/svg">
<mask id="path-1-inside-1_482_1374" fill="white">
<path fill-rule="evenodd" clip-rule="evenodd" d="M6.44989 0.167663C6.4001 0.26066 6.35441 1.36499 6.34831 2.62183C6.34211 3.87867 6.30309 4.94103 6.26141 4.98271C6.19321 5.05091 5.96573 5.1007 4.67016 5.33066C4.04761 5.44111 4.05371 5.42738 4.05371 6.72085C4.05371 7.36925 4.02767 7.96758 3.99582 8.05056C3.94631 8.17961 3.7132 8.20145 2.38597 8.20145C1.20629 8.20145 0.80874 8.23207 0.728142 8.32907C0.655557 8.41663 0.614448 9.62197 0.597279 12.1673L0.572289 15.8778L0.286144 15.9274C0.0806927 15.9629 0 16.0305 0 16.1668C0 16.3548 0.0869874 16.3568 9.28939 16.3809C16.2046 16.399 18.6126 16.3771 18.7115 16.295C18.9043 16.1349 18.8151 15.9822 18.4962 15.9264L18.2179 15.8778L18.1929 12.276L18.1679 8.67416L17.859 8.54464C17.6892 8.47339 17.4 8.37066 17.2164 8.31639C17.0327 8.26202 16.4425 8.08242 15.9049 7.91731L14.9272 7.61705V5.95951C14.9272 4.73834 14.8958 4.28175 14.808 4.22491C14.7424 4.18246 13.9376 4.12628 13.0196 4.10005L11.3504 4.05236L11.3245 2.10143C11.3058 0.686729 11.2665 0.129987 11.1815 0.0760007C11.117 0.0350821 10.0463 0.000935719 8.80228 7.72856e-05C6.73412 -0.00125806 6.53258 0.0131449 6.44989 0.167663ZM6.98068 0.537171C6.94463 0.573225 6.91516 1.5588 6.91516 2.72732V4.85204L7.58283 4.79605L8.2505 4.74006L8.26061 6.73306C8.26614 7.82918 8.26519 10.2871 8.25841 12.1951C8.24964 14.6774 8.27721 15.7015 8.35542 15.7957C8.48437 15.9511 10.6322 15.9874 10.7829 15.8367C10.8394 15.7803 10.8556 12.8821 10.8258 8.13469L10.7781 0.523245L8.91216 0.497396C7.88595 0.48328 7.01674 0.501117 6.98068 0.537171ZM7.98467 1.54268C7.80945 1.7178 7.83912 2.25594 8.02797 2.32843C8.26347 2.41876 8.36267 2.26243 8.32852 1.85467C8.29609 1.46724 8.17238 1.35488 7.98467 1.54268ZM9.43304 1.56338C9.3347 1.81977 9.43676 2.33549 9.58584 2.33549C9.68885 2.33549 9.73702 2.20864 9.758 1.88243C9.78127 1.52017 9.75676 1.42937 9.63572 1.42937C9.55255 1.42937 9.46137 1.48965 9.43304 1.56338ZM7.93584 3.49266C7.81213 3.61647 7.86764 4.17092 8.01605 4.29415C8.23295 4.47414 8.36438 4.28767 8.32852 3.8511C8.29962 3.49876 8.10628 3.32221 7.93584 3.49266ZM9.39508 3.90929C9.39508 4.32258 9.42054 4.38619 9.58584 4.38619C9.75113 4.38619 9.7766 4.32258 9.7766 3.90929C9.7766 3.496 9.75113 3.43238 9.58584 3.43238C9.42054 3.43238 9.39508 3.496 9.39508 3.90929ZM11.3474 4.6937C11.3218 4.76066 11.3121 7.30487 11.3256 10.3475L11.3504 15.8797H12.8765H14.4026V10.2522V4.62465L12.8982 4.59832C11.7473 4.57829 11.383 4.60071 11.3474 4.6937ZM7.2013 5.3546C6.96523 5.3938 6.53602 5.46877 6.24749 5.52123C5.95896 5.57369 5.49931 5.65505 5.22595 5.70189C4.36838 5.84916 4.43524 5.41279 4.43524 10.8647C4.43524 14.4971 4.46366 15.7269 4.5497 15.8129C4.67035 15.9336 7.42306 15.9827 7.71808 15.8695C7.85314 15.8177 7.86897 15.263 7.86897 10.586C7.86897 6.48974 7.84322 5.35212 7.74975 5.32189C7.68422 5.30062 7.43737 5.3154 7.2013 5.3546ZM9.39508 5.80995C9.39508 6.2345 9.41911 6.29382 9.59108 6.29382C9.76535 6.29382 9.78385 6.24365 9.758 5.84162C9.73606 5.50092 9.6878 5.3816 9.56199 5.35775C9.42083 5.33095 9.39508 5.40058 9.39508 5.80995ZM11.9895 5.83599C11.8528 5.97267 11.8417 6.38005 11.9691 6.57997C12.0395 6.69042 12.099 6.6991 12.23 6.61793C12.4388 6.4885 12.494 6.17794 12.3546 5.91726C12.2345 5.69283 12.1511 5.67432 11.9895 5.83599ZM13.4011 6.19844C13.4011 6.60257 13.4287 6.67535 13.5815 6.67535C13.714 6.67535 13.7713 6.59313 13.7976 6.36536C13.8509 5.90524 13.7902 5.72154 13.5849 5.72154C13.4279 5.72154 13.4011 5.79116 13.4011 6.19844ZM5.23625 6.80936C5.13324 7.07776 5.24159 7.57909 5.40947 7.61085C5.60433 7.64776 5.72613 7.27291 5.636 6.9138C5.57152 6.65665 5.32009 6.59094 5.23625 6.80936ZM6.67604 6.86821C6.57684 7.18068 6.71705 7.64452 6.90009 7.6098C7.01569 7.58786 7.06605 7.45805 7.08732 7.12755C7.11288 6.7301 7.09342 6.67535 6.92679 6.67535C6.82035 6.67535 6.71037 6.75986 6.67604 6.86821ZM9.41368 7.79608C9.43466 8.12229 9.48283 8.24914 9.58584 8.24914C9.68885 8.24914 9.73702 8.12229 9.758 7.79608C9.78404 7.38957 9.7664 7.34302 9.58584 7.34302C9.40528 7.34302 9.38764 7.38957 9.41368 7.79608ZM11.9126 7.85961C11.8841 7.93381 11.8747 8.11628 11.8917 8.26498C11.9165 8.48149 11.9702 8.53529 12.1611 8.53529C12.3516 8.53529 12.4058 8.4814 12.4303 8.26727C12.479 7.84225 12.0492 7.50374 11.9126 7.85961ZM13.4011 8.15376C13.4011 8.51936 13.4293 8.58298 13.5919 8.58298C13.7544 8.58298 13.7826 8.51936 13.7826 8.15376C13.7826 7.78817 13.7544 7.72455 13.5919 7.72455C13.4293 7.72455 13.4011 7.78817 13.4011 8.15376ZM14.95 12.0296L14.9749 15.8797L16.1195 15.9073C16.749 15.9225 17.3606 15.9109 17.4787 15.8817L17.6933 15.8283V12.4558C17.6933 9.67548 17.6697 9.0637 17.5593 8.97204C17.4279 8.86302 15.7084 8.32325 15.1885 8.22787L14.925 8.17952L14.95 12.0296ZM5.23625 8.71699C5.13324 8.98539 5.24159 9.48672 5.40947 9.51848C5.60433 9.55539 5.72613 9.18054 5.636 8.82143C5.57152 8.56428 5.32009 8.49857 5.23625 8.71699ZM6.67604 8.77584C6.57684 9.08831 6.71705 9.55215 6.90009 9.51743C7.01569 9.49549 7.06605 9.36568 7.08732 9.03518C7.11288 8.63773 7.09342 8.58298 6.92679 8.58298C6.82035 8.58298 6.71037 8.66749 6.67604 8.77584ZM1.21611 8.7415C1.12378 8.7788 1.09689 9.58105 1.09689 12.3006C1.09689 15.4141 1.11396 15.8181 1.24778 15.8695C1.53908 15.9812 3.81879 15.9334 3.93926 15.8129C4.02405 15.7281 4.05371 14.8132 4.05371 12.2871C4.05371 9.0121 4.04637 8.87189 3.86924 8.77708C3.6863 8.67922 1.44503 8.64917 1.21611 8.7415ZM9.41368 9.79909C9.43466 10.1253 9.48283 10.2522 9.58584 10.2522C9.68885 10.2522 9.73702 10.1253 9.758 9.79909C9.78404 9.39258 9.7664 9.34603 9.58584 9.34603C9.40528 9.34603 9.38764 9.39258 9.41368 9.79909ZM2.09143 9.66375C2.06158 9.74129 2.05099 9.94837 2.06787 10.1239C2.09133 10.3692 2.14246 10.4429 2.28916 10.4429C2.45159 10.4429 2.47992 10.3793 2.47992 10.015C2.47992 9.68301 2.44243 9.57991 2.31272 9.55492C2.22077 9.53718 2.12119 9.5862 2.09143 9.66375ZM11.9895 9.74663C11.8528 9.88332 11.8417 10.2907 11.9691 10.4906C12.0395 10.6011 12.099 10.6097 12.23 10.5286C12.4388 10.3991 12.494 10.0886 12.3546 9.8279C12.2345 9.60347 12.1511 9.58496 11.9895 9.74663ZM13.4667 9.69379C13.4306 9.72985 13.4011 9.94531 13.4011 10.1727C13.4011 10.5261 13.4295 10.586 13.5971 10.586C13.771 10.586 13.7898 10.5358 13.764 10.1404C13.7367 9.72269 13.6172 9.54318 13.4667 9.69379ZM16.7562 9.8443C16.6945 9.90602 16.6441 10.0995 16.6441 10.2742C16.6441 10.6444 16.8904 10.8045 17.0739 10.5537C17.2987 10.2461 17.0067 9.59383 16.7562 9.8443ZM15.4466 10.0481C15.3611 10.3887 15.4792 10.6814 15.7022 10.6814C15.8664 10.6814 15.8881 10.6269 15.8626 10.2769C15.828 9.7989 15.5479 9.64486 15.4466 10.0481ZM5.21689 10.9428C5.23854 11.2797 5.28766 11.4029 5.40947 11.426C5.51877 11.4468 5.59336 11.3758 5.63447 11.2123C5.7289 10.8359 5.60814 10.4906 5.382 10.4906C5.20993 10.4906 5.19114 10.542 5.21689 10.9428ZM6.67604 10.6835C6.57684 10.9959 6.71705 11.4598 6.90009 11.4251C7.01569 11.4031 7.06605 11.2733 7.08732 10.9428C7.11288 10.5454 7.09342 10.4906 6.92679 10.4906C6.82035 10.4906 6.71037 10.5751 6.67604 10.6835ZM11.9329 11.7861C11.8294 12.0557 11.8716 12.372 12.0284 12.5022C12.1588 12.6105 12.2022 12.6016 12.3191 12.4423C12.3946 12.3394 12.4335 12.1693 12.4055 12.0644C12.3775 11.9595 12.3539 11.82 12.3532 11.7544C12.3513 11.5815 12.0013 11.6079 11.9329 11.7861ZM2.09143 11.9529C2.06158 12.0304 2.05099 12.2375 2.06787 12.413C2.09133 12.6583 2.14246 12.7321 2.28916 12.7321C2.45159 12.7321 2.47992 12.6685 2.47992 12.3042C2.47992 11.9722 2.44243 11.8691 2.31272 11.8441C2.22077 11.8263 2.12119 11.8754 2.09143 11.9529ZM16.7109 12.1724C16.5902 12.2931 16.6385 12.948 16.772 12.9991C17.0094 13.0903 17.135 12.9135 17.1037 12.5324C17.0747 12.1785 16.8817 12.0016 16.7109 12.1724ZM6.67794 12.6788C6.60927 12.9914 6.77132 13.3838 6.94549 13.3266C7.00749 13.3062 7.0713 13.0889 7.08732 12.8439C7.11279 12.4538 7.09285 12.3982 6.92794 12.3982C6.79698 12.3982 6.72077 12.4838 6.67794 12.6788Z"/>
</mask>
<path fill-rule="evenodd" clip-rule="evenodd" d="M6.44989 0.167663C6.4001 0.26066 6.35441 1.36499 6.34831 2.62183C6.34211 3.87867 6.30309 4.94103 6.26141 4.98271C6.19321 5.05091 5.96573 5.1007 4.67016 5.33066C4.04761 5.44111 4.05371 5.42738 4.05371 6.72085C4.05371 7.36925 4.02767 7.96758 3.99582 8.05056C3.94631 8.17961 3.7132 8.20145 2.38597 8.20145C1.20629 8.20145 0.80874 8.23207 0.728142 8.32907C0.655557 8.41663 0.614448 9.62197 0.597279 12.1673L0.572289 15.8778L0.286144 15.9274C0.0806927 15.9629 0 16.0305 0 16.1668C0 16.3548 0.0869874 16.3568 9.28939 16.3809C16.2046 16.399 18.6126 16.3771 18.7115 16.295C18.9043 16.1349 18.8151 15.9822 18.4962 15.9264L18.2179 15.8778L18.1929 12.276L18.1679 8.67416L17.859 8.54464C17.6892 8.47339 17.4 8.37066 17.2164 8.31639C17.0327 8.26202 16.4425 8.08242 15.9049 7.91731L14.9272 7.61705V5.95951C14.9272 4.73834 14.8958 4.28175 14.808 4.22491C14.7424 4.18246 13.9376 4.12628 13.0196 4.10005L11.3504 4.05236L11.3245 2.10143C11.3058 0.686729 11.2665 0.129987 11.1815 0.0760007C11.117 0.0350821 10.0463 0.000935719 8.80228 7.72856e-05C6.73412 -0.00125806 6.53258 0.0131449 6.44989 0.167663ZM6.98068 0.537171C6.94463 0.573225 6.91516 1.5588 6.91516 2.72732V4.85204L7.58283 4.79605L8.2505 4.74006L8.26061 6.73306C8.26614 7.82918 8.26519 10.2871 8.25841 12.1951C8.24964 14.6774 8.27721 15.7015 8.35542 15.7957C8.48437 15.9511 10.6322 15.9874 10.7829 15.8367C10.8394 15.7803 10.8556 12.8821 10.8258 8.13469L10.7781 0.523245L8.91216 0.497396C7.88595 0.48328 7.01674 0.501117 6.98068 0.537171ZM7.98467 1.54268C7.80945 1.7178 7.83912 2.25594 8.02797 2.32843C8.26347 2.41876 8.36267 2.26243 8.32852 1.85467C8.29609 1.46724 8.17238 1.35488 7.98467 1.54268ZM9.43304 1.56338C9.3347 1.81977 9.43676 2.33549 9.58584 2.33549C9.68885 2.33549 9.73702 2.20864 9.758 1.88243C9.78127 1.52017 9.75676 1.42937 9.63572 1.42937C9.55255 1.42937 9.46137 1.48965 9.43304 1.56338ZM7.93584 3.49266C7.81213 3.61647 7.86764 4.17092 8.01605 4.29415C8.23295 4.47414 8.36438 4.28767 8.32852 3.8511C8.29962 3.49876 8.10628 3.32221 7.93584 3.49266ZM9.39508 3.90929C9.39508 4.32258 9.42054 4.38619 9.58584 4.38619C9.75113 4.38619 9.7766 4.32258 9.7766 3.90929C9.7766 3.496 9.75113 3.43238 9.58584 3.43238C9.42054 3.43238 9.39508 3.496 9.39508 3.90929ZM11.3474 4.6937C11.3218 4.76066 11.3121 7.30487 11.3256 10.3475L11.3504 15.8797H12.8765H14.4026V10.2522V4.62465L12.8982 4.59832C11.7473 4.57829 11.383 4.60071 11.3474 4.6937ZM7.2013 5.3546C6.96523 5.3938 6.53602 5.46877 6.24749 5.52123C5.95896 5.57369 5.49931 5.65505 5.22595 5.70189C4.36838 5.84916 4.43524 5.41279 4.43524 10.8647C4.43524 14.4971 4.46366 15.7269 4.5497 15.8129C4.67035 15.9336 7.42306 15.9827 7.71808 15.8695C7.85314 15.8177 7.86897 15.263 7.86897 10.586C7.86897 6.48974 7.84322 5.35212 7.74975 5.32189C7.68422 5.30062 7.43737 5.3154 7.2013 5.3546ZM9.39508 5.80995C9.39508 6.2345 9.41911 6.29382 9.59108 6.29382C9.76535 6.29382 9.78385 6.24365 9.758 5.84162C9.73606 5.50092 9.6878 5.3816 9.56199 5.35775C9.42083 5.33095 9.39508 5.40058 9.39508 5.80995ZM11.9895 5.83599C11.8528 5.97267 11.8417 6.38005 11.9691 6.57997C12.0395 6.69042 12.099 6.6991 12.23 6.61793C12.4388 6.4885 12.494 6.17794 12.3546 5.91726C12.2345 5.69283 12.1511 5.67432 11.9895 5.83599ZM13.4011 6.19844C13.4011 6.60257 13.4287 6.67535 13.5815 6.67535C13.714 6.67535 13.7713 6.59313 13.7976 6.36536C13.8509 5.90524 13.7902 5.72154 13.5849 5.72154C13.4279 5.72154 13.4011 5.79116 13.4011 6.19844ZM5.23625 6.80936C5.13324 7.07776 5.24159 7.57909 5.40947 7.61085C5.60433 7.64776 5.72613 7.27291 5.636 6.9138C5.57152 6.65665 5.32009 6.59094 5.23625 6.80936ZM6.67604 6.86821C6.57684 7.18068 6.71705 7.64452 6.90009 7.6098C7.01569 7.58786 7.06605 7.45805 7.08732 7.12755C7.11288 6.7301 7.09342 6.67535 6.92679 6.67535C6.82035 6.67535 6.71037 6.75986 6.67604 6.86821ZM9.41368 7.79608C9.43466 8.12229 9.48283 8.24914 9.58584 8.24914C9.68885 8.24914 9.73702 8.12229 9.758 7.79608C9.78404 7.38957 9.7664 7.34302 9.58584 7.34302C9.40528 7.34302 9.38764 7.38957 9.41368 7.79608ZM11.9126 7.85961C11.8841 7.93381 11.8747 8.11628 11.8917 8.26498C11.9165 8.48149 11.9702 8.53529 12.1611 8.53529C12.3516 8.53529 12.4058 8.4814 12.4303 8.26727C12.479 7.84225 12.0492 7.50374 11.9126 7.85961ZM13.4011 8.15376C13.4011 8.51936 13.4293 8.58298 13.5919 8.58298C13.7544 8.58298 13.7826 8.51936 13.7826 8.15376C13.7826 7.78817 13.7544 7.72455 13.5919 7.72455C13.4293 7.72455 13.4011 7.78817 13.4011 8.15376ZM14.95 12.0296L14.9749 15.8797L16.1195 15.9073C16.749 15.9225 17.3606 15.9109 17.4787 15.8817L17.6933 15.8283V12.4558C17.6933 9.67548 17.6697 9.0637 17.5593 8.97204C17.4279 8.86302 15.7084 8.32325 15.1885 8.22787L14.925 8.17952L14.95 12.0296ZM5.23625 8.71699C5.13324 8.98539 5.24159 9.48672 5.40947 9.51848C5.60433 9.55539 5.72613 9.18054 5.636 8.82143C5.57152 8.56428 5.32009 8.49857 5.23625 8.71699ZM6.67604 8.77584C6.57684 9.08831 6.71705 9.55215 6.90009 9.51743C7.01569 9.49549 7.06605 9.36568 7.08732 9.03518C7.11288 8.63773 7.09342 8.58298 6.92679 8.58298C6.82035 8.58298 6.71037 8.66749 6.67604 8.77584ZM1.21611 8.7415C1.12378 8.7788 1.09689 9.58105 1.09689 12.3006C1.09689 15.4141 1.11396 15.8181 1.24778 15.8695C1.53908 15.9812 3.81879 15.9334 3.93926 15.8129C4.02405 15.7281 4.05371 14.8132 4.05371 12.2871C4.05371 9.0121 4.04637 8.87189 3.86924 8.77708C3.6863 8.67922 1.44503 8.64917 1.21611 8.7415ZM9.41368 9.79909C9.43466 10.1253 9.48283 10.2522 9.58584 10.2522C9.68885 10.2522 9.73702 10.1253 9.758 9.79909C9.78404 9.39258 9.7664 9.34603 9.58584 9.34603C9.40528 9.34603 9.38764 9.39258 9.41368 9.79909ZM2.09143 9.66375C2.06158 9.74129 2.05099 9.94837 2.06787 10.1239C2.09133 10.3692 2.14246 10.4429 2.28916 10.4429C2.45159 10.4429 2.47992 10.3793 2.47992 10.015C2.47992 9.68301 2.44243 9.57991 2.31272 9.55492C2.22077 9.53718 2.12119 9.5862 2.09143 9.66375ZM11.9895 9.74663C11.8528 9.88332 11.8417 10.2907 11.9691 10.4906C12.0395 10.6011 12.099 10.6097 12.23 10.5286C12.4388 10.3991 12.494 10.0886 12.3546 9.8279C12.2345 9.60347 12.1511 9.58496 11.9895 9.74663ZM13.4667 9.69379C13.4306 9.72985 13.4011 9.94531 13.4011 10.1727C13.4011 10.5261 13.4295 10.586 13.5971 10.586C13.771 10.586 13.7898 10.5358 13.764 10.1404C13.7367 9.72269 13.6172 9.54318 13.4667 9.69379ZM16.7562 9.8443C16.6945 9.90602 16.6441 10.0995 16.6441 10.2742C16.6441 10.6444 16.8904 10.8045 17.0739 10.5537C17.2987 10.2461 17.0067 9.59383 16.7562 9.8443ZM15.4466 10.0481C15.3611 10.3887 15.4792 10.6814 15.7022 10.6814C15.8664 10.6814 15.8881 10.6269 15.8626 10.2769C15.828 9.7989 15.5479 9.64486 15.4466 10.0481ZM5.21689 10.9428C5.23854 11.2797 5.28766 11.4029 5.40947 11.426C5.51877 11.4468 5.59336 11.3758 5.63447 11.2123C5.7289 10.8359 5.60814 10.4906 5.382 10.4906C5.20993 10.4906 5.19114 10.542 5.21689 10.9428ZM6.67604 10.6835C6.57684 10.9959 6.71705 11.4598 6.90009 11.4251C7.01569 11.4031 7.06605 11.2733 7.08732 10.9428C7.11288 10.5454 7.09342 10.4906 6.92679 10.4906C6.82035 10.4906 6.71037 10.5751 6.67604 10.6835ZM11.9329 11.7861C11.8294 12.0557 11.8716 12.372 12.0284 12.5022C12.1588 12.6105 12.2022 12.6016 12.3191 12.4423C12.3946 12.3394 12.4335 12.1693 12.4055 12.0644C12.3775 11.9595 12.3539 11.82 12.3532 11.7544C12.3513 11.5815 12.0013 11.6079 11.9329 11.7861ZM2.09143 11.9529C2.06158 12.0304 2.05099 12.2375 2.06787 12.413C2.09133 12.6583 2.14246 12.7321 2.28916 12.7321C2.45159 12.7321 2.47992 12.6685 2.47992 12.3042C2.47992 11.9722 2.44243 11.8691 2.31272 11.8441C2.22077 11.8263 2.12119 11.8754 2.09143 11.9529ZM16.7109 12.1724C16.5902 12.2931 16.6385 12.948 16.772 12.9991C17.0094 13.0903 17.135 12.9135 17.1037 12.5324C17.0747 12.1785 16.8817 12.0016 16.7109 12.1724ZM6.67794 12.6788C6.60927 12.9914 6.77132 13.3838 6.94549 13.3266C7.00749 13.3062 7.0713 13.0889 7.08732 12.8439C7.11279 12.4538 7.09285 12.3982 6.92794 12.3982C6.79698 12.3982 6.72077 12.4838 6.67794 12.6788Z" stroke="#9D9D9C" stroke-width="3" mask="url(#path-1-inside-1_482_1374)"/>
</svg>
