<svg width="23" height="20" viewBox="0 0 23 20" fill="none" xmlns="http://www.w3.org/2000/svg">
<mask id="path-1-inside-1_482_1359" fill="white">
<path fill-rule="evenodd" clip-rule="evenodd" d="M5.12959 0.0620308C5.11353 0.102183 5.09353 2.82047 5.08517 6.10275L5.06997 12.0705L4.33541 12.0869C3.92303 12.0961 3.56547 12.131 3.52012 12.1665C3.40112 12.2595 3.42069 12.587 3.55194 12.6989C3.65543 12.7871 4.31098 12.7948 11.726 12.7948C19.4578 12.7948 19.7918 12.7904 19.8894 12.6888C20.0181 12.5549 20.0213 12.253 19.8951 12.1544C19.8262 12.1006 19.5338 12.078 18.8644 12.0749L17.93 12.0705L17.9141 8.66379L17.8982 5.25712L17.5141 5.27433L17.1301 5.29159L17.0993 8.68105L17.0685 12.0705H14.4842H11.8999V8.01475V3.95898L13.9697 3.94375C16.3225 3.92642 16.2161 3.94966 16.1458 3.46824L16.1032 3.1768H13.9872H11.8711L11.8548 1.59795L11.8384 0.0190975L8.4986 0.00409114C5.85935 -0.00772852 5.15267 0.00443889 5.12959 0.0620308ZM5.91362 0.754292C5.8033 0.858177 5.80563 11.8605 5.91602 12.0023C5.98666 12.093 6.20048 12.0998 8.54647 12.0858L11.1 12.0705V6.39244V0.714372L8.54407 0.699249C6.60738 0.687835 5.97004 0.701161 5.91362 0.754292ZM7.84379 3.2994C7.7163 3.39378 7.68264 3.46337 7.69704 3.60225C7.72288 3.85075 7.91713 3.9281 8.51737 3.92915C9.08751 3.93013 9.2854 3.84351 9.28392 3.59356C9.28201 3.27814 9.08321 3.1768 8.46654 3.1768C8.09416 3.1768 7.9786 3.19957 7.84379 3.2994ZM1.36537 4.06038C1.33313 4.10024 1.26353 4.22406 1.21062 4.33559C1.15776 4.44712 1.04621 4.68178 0.962771 4.85705C0.879335 5.03231 0.773748 5.28 0.728215 5.40747C0.68262 5.53494 0.623366 5.66403 0.596415 5.69427C0.569465 5.72457 0.547437 5.80772 0.547437 5.87916C0.547437 5.9506 0.519748 6.02511 0.485906 6.04481C0.452063 6.06451 0.424374 6.14272 0.424374 6.21862C0.424374 6.29453 0.399762 6.37095 0.369612 6.3885C0.339523 6.406 0.299159 6.50531 0.2799 6.60919C0.26064 6.71302 0.214554 6.94142 0.177512 7.11669C0.00159476 7.94835 -0.0546446 9.55918 0.0591878 10.5061C0.169205 11.4218 0.190987 11.5499 0.24575 11.6041C0.276331 11.6344 0.301312 11.7095 0.301312 11.771C0.301312 11.8845 0.612229 12.795 0.759719 13.1134C0.80396 13.209 0.944866 13.5219 1.07279 13.8087C1.20071 14.0955 1.35632 14.3993 1.41865 14.4839C1.48092 14.5685 1.53193 14.6663 1.53193 14.7012C1.53193 14.7361 1.55962 14.7647 1.59346 14.7647C1.62731 14.7647 1.655 14.7941 1.655 14.8301C1.655 14.866 1.78907 15.068 1.95299 15.2791C2.11691 15.4901 2.33528 15.7801 2.43835 15.9235C2.69167 16.2761 3.89325 17.4011 4.33966 17.7037C4.53828 17.8383 4.77573 18.0143 4.86729 18.0948C4.95891 18.1753 5.05083 18.2411 5.07157 18.2411C5.09237 18.2411 5.22509 18.313 5.36655 18.401C5.61366 18.5546 6.66645 19.0563 7.14664 19.2492C7.27358 19.3002 7.4674 19.3784 7.57736 19.4231C7.68731 19.4677 7.84656 19.5211 7.93116 19.5416C8.01577 19.5622 8.23728 19.6183 8.42341 19.6664C8.60954 19.7144 9.0941 19.8075 9.5002 19.8731C10.4723 20.0304 12.3973 20.0439 13.3151 19.9C14.4667 19.7195 14.9299 19.613 15.2679 19.451C15.3266 19.4229 15.4031 19.3999 15.4378 19.3999C15.5262 19.3999 15.9795 19.2072 16.6993 18.8638C17.6058 18.4313 17.9722 18.2277 18.1813 18.0402C18.218 18.0073 18.422 17.863 18.6347 17.7196C19.4546 17.1668 20.5098 16.0641 21.2335 15.0038C21.2906 14.9201 21.3604 14.8255 21.3885 14.7937C21.4829 14.6866 21.8875 13.9276 22.0216 13.6059C22.0947 13.4306 22.1918 13.209 22.2376 13.1134C22.3804 12.8147 22.6986 11.8884 22.6986 11.771C22.6986 11.7095 22.7236 11.6343 22.7542 11.6041C22.8089 11.5499 22.8307 11.4218 22.9407 10.5061C23.0931 9.2382 22.9368 7.09565 22.6405 6.39244C22.6136 6.32871 22.5303 6.09707 22.4553 5.87777C22.3802 5.65841 22.1706 5.14999 21.9895 4.74795L21.6602 4.01692L21.1949 4C20.939 3.99068 20.7296 3.99972 20.7296 4.02005C20.7296 4.04033 20.7866 4.13234 20.8563 4.22446C21.1528 4.61654 21.79 6.1192 21.9722 6.85596C22.3588 8.41951 22.3547 10.0917 21.9603 11.578C21.9223 11.7214 21.8758 11.9108 21.8571 11.9988C21.8383 12.0868 21.7985 12.1731 21.7686 12.1905C21.7386 12.2079 21.7141 12.2806 21.7141 12.352C21.7141 12.4235 21.6918 12.5067 21.6645 12.5369C21.6371 12.5672 21.5488 12.7745 21.4682 12.9975C20.7663 14.9405 18.5608 17.2108 16.4224 18.1916C16.0147 18.3786 15.579 18.5631 15.3303 18.654C15.2541 18.6818 15.1296 18.7293 15.0534 18.7596C14.6216 18.9312 14.2302 19.0325 13.3151 19.2094C12.5942 19.3488 10.4429 19.3433 9.6848 19.2001C9.38022 19.1426 9.04075 19.0829 8.93049 19.0675C8.82016 19.0521 8.7147 19.0162 8.69612 18.9879C8.67747 18.9595 8.59631 18.9363 8.51571 18.9363C8.4351 18.9363 8.35203 18.9103 8.33111 18.8784C8.31019 18.8465 8.23894 18.8205 8.17279 18.8205C8.10665 18.8205 8.00445 18.7975 7.94568 18.7693C7.88692 18.7411 7.76964 18.6923 7.68504 18.6607C7.60043 18.6292 7.40661 18.5506 7.25432 18.4862C7.10203 18.4217 6.88052 18.3353 6.76207 18.2942C6.4842 18.1978 5.69395 17.7553 5.37762 17.519C5.24226 17.4178 4.99305 17.2468 4.82384 17.1389C4.3132 16.8134 3.15691 15.6591 2.69419 15.0129C2.46105 14.6873 2.27031 14.394 2.27031 14.361C2.27031 14.3281 2.24748 14.3012 2.2196 14.3012C2.14835 14.3012 1.55808 13.168 1.46505 12.8527C1.42272 12.7093 1.36512 12.5672 1.33694 12.5369C1.30882 12.5066 1.28581 12.4346 1.28581 12.3768C1.28581 12.319 1.2615 12.2264 1.23185 12.1711C1.14423 12.0078 1.03969 11.6656 1.03969 11.542C1.03969 11.479 1.01483 11.4026 0.98443 11.3723C0.917054 11.3051 0.874843 11.0292 0.776824 10.0137C0.717878 9.40344 0.717324 9.05951 0.77424 8.4493C0.853184 7.60344 0.976985 6.90718 1.09882 6.6242C1.12626 6.56047 1.18441 6.39099 1.22797 6.24759C1.27153 6.10419 1.33011 5.96207 1.35805 5.93182C1.38598 5.90152 1.40887 5.83246 1.40887 5.77828C1.40887 5.63054 1.81842 4.73844 2.05901 4.3623C2.17524 4.18054 2.27031 4.02196 2.27031 4.00991C2.27031 3.94821 1.41761 3.99578 1.36537 4.06038ZM7.99269 6.02997C7.63649 6.19377 7.57656 6.44853 7.84717 6.64894C7.98119 6.74819 8.09656 6.76905 8.51238 6.76905C8.93369 6.76905 9.03743 6.74981 9.15015 6.65091C9.33948 6.48486 9.32872 6.21938 9.12769 6.09539C8.92963 5.97313 8.20682 5.93148 7.99269 6.02997ZM14.3612 6.02713C14.1735 6.12731 14.1478 6.19087 14.1467 6.5556C14.1455 6.99646 14.2167 7.11669 14.4789 7.11669C14.7702 7.11669 14.8534 6.99171 14.8534 6.55404C14.8534 6.22662 14.8353 6.16996 14.6996 6.07175C14.5197 5.94162 14.521 5.94179 14.3612 6.02713ZM7.81881 8.98894C7.66738 9.14074 7.65076 9.29996 7.77069 9.44875C7.83936 9.53392 7.95516 9.55015 8.49479 9.55015C9.20375 9.55015 9.28484 9.51718 9.28484 9.22887C9.28484 8.92515 9.13859 8.85487 8.50623 8.85487C8.00709 8.85487 7.93947 8.86808 7.81881 8.98894ZM14.2416 8.98367C14.1379 9.12302 14.1099 9.69667 14.2001 9.83086C14.2673 9.93075 14.676 9.94315 14.7766 9.84842C14.883 9.74824 14.8773 9.07354 14.769 8.9507C14.6458 8.81095 14.3566 8.82903 14.2416 8.98367Z"/>
</mask>
<path fill-rule="evenodd" clip-rule="evenodd" d="M5.12959 0.0620308C5.11353 0.102183 5.09353 2.82047 5.08517 6.10275L5.06997 12.0705L4.33541 12.0869C3.92303 12.0961 3.56547 12.131 3.52012 12.1665C3.40112 12.2595 3.42069 12.587 3.55194 12.6989C3.65543 12.7871 4.31098 12.7948 11.726 12.7948C19.4578 12.7948 19.7918 12.7904 19.8894 12.6888C20.0181 12.5549 20.0213 12.253 19.8951 12.1544C19.8262 12.1006 19.5338 12.078 18.8644 12.0749L17.93 12.0705L17.9141 8.66379L17.8982 5.25712L17.5141 5.27433L17.1301 5.29159L17.0993 8.68105L17.0685 12.0705H14.4842H11.8999V8.01475V3.95898L13.9697 3.94375C16.3225 3.92642 16.2161 3.94966 16.1458 3.46824L16.1032 3.1768H13.9872H11.8711L11.8548 1.59795L11.8384 0.0190975L8.4986 0.00409114C5.85935 -0.00772852 5.15267 0.00443889 5.12959 0.0620308ZM5.91362 0.754292C5.8033 0.858177 5.80563 11.8605 5.91602 12.0023C5.98666 12.093 6.20048 12.0998 8.54647 12.0858L11.1 12.0705V6.39244V0.714372L8.54407 0.699249C6.60738 0.687835 5.97004 0.701161 5.91362 0.754292ZM7.84379 3.2994C7.7163 3.39378 7.68264 3.46337 7.69704 3.60225C7.72288 3.85075 7.91713 3.9281 8.51737 3.92915C9.08751 3.93013 9.2854 3.84351 9.28392 3.59356C9.28201 3.27814 9.08321 3.1768 8.46654 3.1768C8.09416 3.1768 7.9786 3.19957 7.84379 3.2994ZM1.36537 4.06038C1.33313 4.10024 1.26353 4.22406 1.21062 4.33559C1.15776 4.44712 1.04621 4.68178 0.962771 4.85705C0.879335 5.03231 0.773748 5.28 0.728215 5.40747C0.68262 5.53494 0.623366 5.66403 0.596415 5.69427C0.569465 5.72457 0.547437 5.80772 0.547437 5.87916C0.547437 5.9506 0.519748 6.02511 0.485906 6.04481C0.452063 6.06451 0.424374 6.14272 0.424374 6.21862C0.424374 6.29453 0.399762 6.37095 0.369612 6.3885C0.339523 6.406 0.299159 6.50531 0.2799 6.60919C0.26064 6.71302 0.214554 6.94142 0.177512 7.11669C0.00159476 7.94835 -0.0546446 9.55918 0.0591878 10.5061C0.169205 11.4218 0.190987 11.5499 0.24575 11.6041C0.276331 11.6344 0.301312 11.7095 0.301312 11.771C0.301312 11.8845 0.612229 12.795 0.759719 13.1134C0.80396 13.209 0.944866 13.5219 1.07279 13.8087C1.20071 14.0955 1.35632 14.3993 1.41865 14.4839C1.48092 14.5685 1.53193 14.6663 1.53193 14.7012C1.53193 14.7361 1.55962 14.7647 1.59346 14.7647C1.62731 14.7647 1.655 14.7941 1.655 14.8301C1.655 14.866 1.78907 15.068 1.95299 15.2791C2.11691 15.4901 2.33528 15.7801 2.43835 15.9235C2.69167 16.2761 3.89325 17.4011 4.33966 17.7037C4.53828 17.8383 4.77573 18.0143 4.86729 18.0948C4.95891 18.1753 5.05083 18.2411 5.07157 18.2411C5.09237 18.2411 5.22509 18.313 5.36655 18.401C5.61366 18.5546 6.66645 19.0563 7.14664 19.2492C7.27358 19.3002 7.4674 19.3784 7.57736 19.4231C7.68731 19.4677 7.84656 19.5211 7.93116 19.5416C8.01577 19.5622 8.23728 19.6183 8.42341 19.6664C8.60954 19.7144 9.0941 19.8075 9.5002 19.8731C10.4723 20.0304 12.3973 20.0439 13.3151 19.9C14.4667 19.7195 14.9299 19.613 15.2679 19.451C15.3266 19.4229 15.4031 19.3999 15.4378 19.3999C15.5262 19.3999 15.9795 19.2072 16.6993 18.8638C17.6058 18.4313 17.9722 18.2277 18.1813 18.0402C18.218 18.0073 18.422 17.863 18.6347 17.7196C19.4546 17.1668 20.5098 16.0641 21.2335 15.0038C21.2906 14.9201 21.3604 14.8255 21.3885 14.7937C21.4829 14.6866 21.8875 13.9276 22.0216 13.6059C22.0947 13.4306 22.1918 13.209 22.2376 13.1134C22.3804 12.8147 22.6986 11.8884 22.6986 11.771C22.6986 11.7095 22.7236 11.6343 22.7542 11.6041C22.8089 11.5499 22.8307 11.4218 22.9407 10.5061C23.0931 9.2382 22.9368 7.09565 22.6405 6.39244C22.6136 6.32871 22.5303 6.09707 22.4553 5.87777C22.3802 5.65841 22.1706 5.14999 21.9895 4.74795L21.6602 4.01692L21.1949 4C20.939 3.99068 20.7296 3.99972 20.7296 4.02005C20.7296 4.04033 20.7866 4.13234 20.8563 4.22446C21.1528 4.61654 21.79 6.1192 21.9722 6.85596C22.3588 8.41951 22.3547 10.0917 21.9603 11.578C21.9223 11.7214 21.8758 11.9108 21.8571 11.9988C21.8383 12.0868 21.7985 12.1731 21.7686 12.1905C21.7386 12.2079 21.7141 12.2806 21.7141 12.352C21.7141 12.4235 21.6918 12.5067 21.6645 12.5369C21.6371 12.5672 21.5488 12.7745 21.4682 12.9975C20.7663 14.9405 18.5608 17.2108 16.4224 18.1916C16.0147 18.3786 15.579 18.5631 15.3303 18.654C15.2541 18.6818 15.1296 18.7293 15.0534 18.7596C14.6216 18.9312 14.2302 19.0325 13.3151 19.2094C12.5942 19.3488 10.4429 19.3433 9.6848 19.2001C9.38022 19.1426 9.04075 19.0829 8.93049 19.0675C8.82016 19.0521 8.7147 19.0162 8.69612 18.9879C8.67747 18.9595 8.59631 18.9363 8.51571 18.9363C8.4351 18.9363 8.35203 18.9103 8.33111 18.8784C8.31019 18.8465 8.23894 18.8205 8.17279 18.8205C8.10665 18.8205 8.00445 18.7975 7.94568 18.7693C7.88692 18.7411 7.76964 18.6923 7.68504 18.6607C7.60043 18.6292 7.40661 18.5506 7.25432 18.4862C7.10203 18.4217 6.88052 18.3353 6.76207 18.2942C6.4842 18.1978 5.69395 17.7553 5.37762 17.519C5.24226 17.4178 4.99305 17.2468 4.82384 17.1389C4.3132 16.8134 3.15691 15.6591 2.69419 15.0129C2.46105 14.6873 2.27031 14.394 2.27031 14.361C2.27031 14.3281 2.24748 14.3012 2.2196 14.3012C2.14835 14.3012 1.55808 13.168 1.46505 12.8527C1.42272 12.7093 1.36512 12.5672 1.33694 12.5369C1.30882 12.5066 1.28581 12.4346 1.28581 12.3768C1.28581 12.319 1.2615 12.2264 1.23185 12.1711C1.14423 12.0078 1.03969 11.6656 1.03969 11.542C1.03969 11.479 1.01483 11.4026 0.98443 11.3723C0.917054 11.3051 0.874843 11.0292 0.776824 10.0137C0.717878 9.40344 0.717324 9.05951 0.77424 8.4493C0.853184 7.60344 0.976985 6.90718 1.09882 6.6242C1.12626 6.56047 1.18441 6.39099 1.22797 6.24759C1.27153 6.10419 1.33011 5.96207 1.35805 5.93182C1.38598 5.90152 1.40887 5.83246 1.40887 5.77828C1.40887 5.63054 1.81842 4.73844 2.05901 4.3623C2.17524 4.18054 2.27031 4.02196 2.27031 4.00991C2.27031 3.94821 1.41761 3.99578 1.36537 4.06038ZM7.99269 6.02997C7.63649 6.19377 7.57656 6.44853 7.84717 6.64894C7.98119 6.74819 8.09656 6.76905 8.51238 6.76905C8.93369 6.76905 9.03743 6.74981 9.15015 6.65091C9.33948 6.48486 9.32872 6.21938 9.12769 6.09539C8.92963 5.97313 8.20682 5.93148 7.99269 6.02997ZM14.3612 6.02713C14.1735 6.12731 14.1478 6.19087 14.1467 6.5556C14.1455 6.99646 14.2167 7.11669 14.4789 7.11669C14.7702 7.11669 14.8534 6.99171 14.8534 6.55404C14.8534 6.22662 14.8353 6.16996 14.6996 6.07175C14.5197 5.94162 14.521 5.94179 14.3612 6.02713ZM7.81881 8.98894C7.66738 9.14074 7.65076 9.29996 7.77069 9.44875C7.83936 9.53392 7.95516 9.55015 8.49479 9.55015C9.20375 9.55015 9.28484 9.51718 9.28484 9.22887C9.28484 8.92515 9.13859 8.85487 8.50623 8.85487C8.00709 8.85487 7.93947 8.86808 7.81881 8.98894ZM14.2416 8.98367C14.1379 9.12302 14.1099 9.69667 14.2001 9.83086C14.2673 9.93075 14.676 9.94315 14.7766 9.84842C14.883 9.74824 14.8773 9.07354 14.769 8.9507C14.6458 8.81095 14.3566 8.82903 14.2416 8.98367Z" stroke="#9D9D9C" stroke-width="2" mask="url(#path-1-inside-1_482_1359)"/>
</svg>
