<svg width="26" height="25" viewBox="0 0 26 25" fill="none" xmlns="http://www.w3.org/2000/svg">
<path fill-rule="evenodd" clip-rule="evenodd" d="M4.30358 0H4.20743C3.76704 0 3.3882 1.43269e-08 3.05358 0.0788401C2.53557 0.202609 2.06194 0.467361 1.68518 0.843761C1.30841 1.22016 1.04321 1.69351 0.918964 2.21137C0.842041 2.54596 0.842041 2.92285 0.842041 3.36513V8.17245C0.842041 8.6128 0.842041 8.99162 0.920887 9.32621C1.04467 9.84417 1.30944 10.3178 1.68587 10.6945C2.0623 11.0712 2.53568 11.3364 3.05358 11.4607C3.3882 11.5376 3.76512 11.5376 4.20743 11.5376H9.01512C9.4555 11.5376 9.83435 11.5376 10.169 11.4587C10.687 11.335 11.1606 11.0702 11.5374 10.6938C11.9141 10.3174 12.1793 9.84406 12.3036 9.32621C12.3805 8.99162 12.3805 8.61472 12.3805 8.17245V3.36513C12.3805 2.92477 12.3805 2.54596 12.3017 2.21137C12.1779 1.6934 11.9131 1.21981 11.5367 0.843071C11.1602 0.466332 10.6869 0.201153 10.169 0.0769171C9.83435 -7.16347e-08 9.45743 0 9.01512 0H4.30358ZM3.50166 1.94985C3.58435 1.93062 3.71319 1.92293 4.30358 1.92293H8.91896C9.51127 1.92293 9.6382 1.9287 9.72089 1.94985C9.89364 1.99116 10.0516 2.0795 10.1772 2.20509C10.3028 2.33068 10.3911 2.4886 10.4324 2.66133C10.4517 2.7421 10.4574 2.86901 10.4574 3.46127V8.0763C10.4574 8.66856 10.4517 8.79548 10.4305 8.87816C10.3892 9.0509 10.3008 9.20882 10.1752 9.3344C10.0496 9.45999 9.89171 9.54834 9.71896 9.58965C9.64012 9.60695 9.51319 9.61465 8.91896 9.61465H4.30358C3.71127 9.61465 3.58435 9.60888 3.50166 9.58772C3.32891 9.54642 3.17098 9.45807 3.04538 9.33248C2.91978 9.20689 2.83143 9.04898 2.79012 8.87624C2.77281 8.7974 2.76512 8.67049 2.76512 8.0763V3.46127C2.76512 2.86901 2.77089 2.7421 2.79204 2.65941C2.83335 2.48667 2.9217 2.32875 3.0473 2.20317C3.1729 2.07758 3.33083 1.98923 3.50358 1.94793L3.50166 1.94985ZM17.7651 0H17.669C17.2286 0 16.8497 1.43269e-08 16.5151 0.0788401C15.9971 0.202609 15.5235 0.467361 15.1467 0.843761C14.7699 1.22016 14.5047 1.69351 14.3805 2.21137C14.3036 2.54596 14.3036 2.92285 14.3036 3.36513V8.17245C14.3036 8.6128 14.3036 8.99162 14.3824 9.32621C14.5062 9.84417 14.771 10.3178 15.1474 10.6945C15.5238 11.0712 15.9972 11.3364 16.5151 11.4607C16.8497 11.5376 17.2267 11.5376 17.669 11.5376H22.4767C22.917 11.5376 23.2959 11.5376 23.6305 11.4587C24.1485 11.335 24.6221 11.0702 24.9989 10.6938C25.3757 10.3174 25.6409 9.84406 25.7651 9.32621C25.842 8.99162 25.842 8.61472 25.842 8.17245V3.36513C25.842 2.92477 25.842 2.54596 25.7632 2.21137C25.6394 1.6934 25.3746 1.21981 24.9982 0.843071C24.6218 0.466332 24.1484 0.201153 23.6305 0.0769171C23.2959 -7.16347e-08 22.919 0 22.4767 0H17.7651ZM16.9632 1.94985C17.0459 1.93062 17.1747 1.92293 17.7651 1.92293H22.3805C22.9728 1.92293 23.0997 1.9287 23.1824 1.94985C23.3552 1.99116 23.5131 2.0795 23.6387 2.20509C23.7643 2.33068 23.8527 2.4886 23.894 2.66133C23.9132 2.7421 23.919 2.86901 23.919 3.46127V8.0763C23.919 8.66856 23.9113 8.79548 23.892 8.87816C23.8507 9.0509 23.7624 9.20882 23.6368 9.3344C23.5112 9.45999 23.3533 9.54834 23.1805 9.58965C23.0997 9.60888 22.9728 9.61465 22.3805 9.61465H17.7651C17.1728 9.61465 17.0459 9.60888 16.9632 9.58772C16.7904 9.54642 16.6325 9.45807 16.5069 9.33248C16.3813 9.20689 16.293 9.04898 16.2517 8.87624C16.2343 8.7974 16.2267 8.67049 16.2267 8.0763V3.46127C16.2267 2.86901 16.2324 2.7421 16.2536 2.65941C16.2949 2.48667 16.3832 2.32875 16.5088 2.20317C16.6344 2.07758 16.7924 1.98923 16.9651 1.94793L16.9632 1.94985ZM4.20743 13.4605H9.01512C9.4555 13.4605 9.83435 13.4605 10.169 13.5393C10.687 13.6631 11.1606 13.9279 11.5374 14.3043C11.9141 14.6807 12.1793 15.154 12.3036 15.6719C12.3805 16.0065 12.3805 16.3834 12.3805 16.8256V21.6329C12.3805 22.0733 12.3805 22.4521 12.3017 22.7867C12.1779 23.3047 11.9131 23.7783 11.5367 24.155C11.1602 24.5317 10.6869 24.7969 10.169 24.9212C9.83435 24.9981 9.45743 24.9981 9.01512 24.9981H4.20743C3.76704 24.9981 3.3882 24.9981 3.05358 24.9192C2.53557 24.7955 2.06194 24.5307 1.68518 24.1543C1.30841 23.7779 1.04321 23.3046 0.918964 22.7867C0.842041 22.4521 0.842041 22.0752 0.842041 21.6329V16.8256C0.842041 16.3853 0.842041 16.0065 0.920887 15.6719C1.04467 15.1539 1.30944 14.6803 1.68587 14.3036C2.0623 13.9268 2.53568 13.6617 3.05358 13.5374C3.3882 13.4605 3.76512 13.4605 4.20743 13.4605ZM4.30358 15.3834C3.71127 15.3834 3.58435 15.3892 3.50166 15.4104C3.32891 15.4517 3.17098 15.54 3.04538 15.6656C2.91978 15.7912 2.83143 15.9491 2.79012 16.1218C2.77281 16.2007 2.76512 16.3276 2.76512 16.9218V21.5368C2.76512 22.1291 2.77089 22.256 2.79204 22.3387C2.83335 22.5114 2.9217 22.6693 3.0473 22.7949C3.1729 22.9205 3.33083 23.0088 3.50358 23.0501C3.58435 23.0694 3.71127 23.0751 4.30358 23.0751H8.91896C9.51127 23.0751 9.6382 23.0675 9.72089 23.0482C9.89364 23.0069 10.0516 22.9186 10.1772 22.793C10.3028 22.6674 10.3911 22.5095 10.4324 22.3367C10.4517 22.256 10.4574 22.1291 10.4574 21.5368V16.9218C10.4574 16.3295 10.4517 16.2026 10.4305 16.1199C10.3892 15.9472 10.3008 15.7893 10.1752 15.6637C10.0496 15.5381 9.89171 15.4497 9.71896 15.4084C9.64012 15.3911 9.51319 15.3834 8.91896 15.3834H4.30358ZM17.7651 13.4605H17.669C17.2286 13.4605 16.8497 13.4605 16.5151 13.5393C15.9971 13.6631 15.5235 13.9279 15.1467 14.3043C14.7699 14.6807 14.5047 15.154 14.3805 15.6719C14.3036 16.0065 14.3036 16.3834 14.3036 16.8256V21.6329C14.3036 22.0733 14.3036 22.4521 14.3824 22.7867C14.5062 23.3047 14.771 23.7783 15.1474 24.155C15.5238 24.5317 15.9972 24.7969 16.5151 24.9212C16.8497 25 17.2286 25 17.669 25H22.4767C22.917 25 23.2959 25 23.6305 24.9212C24.1482 24.7971 24.6214 24.5322 24.9978 24.1558C25.3742 23.7794 25.6391 23.3062 25.7632 22.7886C25.842 22.454 25.842 22.0752 25.842 21.6349V16.8256C25.842 16.3853 25.842 16.0065 25.7632 15.6719C25.6394 15.1539 25.3746 14.6803 24.9982 14.3036C24.6218 13.9268 24.1484 13.6617 23.6305 13.5374C23.2959 13.4605 22.919 13.4605 22.4767 13.4605H17.7651ZM16.9632 15.4104C17.0459 15.3911 17.1747 15.3834 17.7651 15.3834H22.3805C22.9728 15.3834 23.0997 15.3892 23.1824 15.4104C23.3552 15.4517 23.5131 15.54 23.6387 15.6656C23.7643 15.7912 23.8527 15.9491 23.894 16.1218C23.9132 16.2026 23.919 16.3295 23.919 16.9218V21.5368C23.919 22.1291 23.9113 22.256 23.892 22.3387C23.8507 22.5114 23.7624 22.6693 23.6368 22.7949C23.5112 22.9205 23.3533 23.0088 23.1805 23.0501C23.0997 23.0694 22.9728 23.0751 22.3805 23.0751H17.7651C17.1728 23.0751 17.0459 23.0675 16.9632 23.0482C16.7904 23.0069 16.6325 22.9186 16.5069 22.793C16.3813 22.6674 16.293 22.5095 16.2517 22.3367C16.2343 22.2579 16.2267 22.131 16.2267 21.5368V16.9218C16.2267 16.3295 16.2324 16.2026 16.2536 16.1199C16.2949 15.9472 16.3832 15.7893 16.5088 15.6637C16.6344 15.5381 16.7924 15.4497 16.9651 15.4084L16.9632 15.4104Z" fill="#FE0000"/>
</svg>
