<svg width="28" height="25" viewBox="0 0 28 25" fill="none" xmlns="http://www.w3.org/2000/svg">
<path fill-rule="evenodd" clip-rule="evenodd" d="M10.1179 0.255729C6.99449 0.995739 4.39342 3.48664 3.42911 6.66097C3.27781 7.15949 3.15384 7.89165 3.15384 8.28819V9.00884H1.57701H0L2.04387 11.0116L4.08775 13.0145L6.10037 11.0533L8.113 9.09229L6.63486 9.04372L5.1569 8.99516L5.24672 8.04236C5.42466 6.15728 6.9086 3.95294 8.68215 2.93922C11.0179 1.6039 14.1357 1.7274 16.3892 3.24431C19.7663 5.51758 20.4504 10.2766 17.8525 13.4252C15.3635 16.442 10.5242 16.8936 7.71751 14.371L7.24347 13.9451L6.46086 14.71L5.67824 15.475L6.82441 16.2744C9.78836 18.3416 13.4372 18.5867 16.624 16.9328L17.7419 16.3529L18.4738 17.0548C18.9941 17.5538 19.2057 17.8933 19.2057 18.2291C19.2057 18.7069 19.4615 18.9676 24.7555 23.8888L25.9508 25L26.9754 24.0926L28 23.1852L24.6961 20.019C21.8405 17.2826 21.319 16.8519 20.8539 16.846C20.4729 16.8412 20.0977 16.6468 19.5702 16.1805L18.825 15.5219L19.3457 14.9423C21.2639 12.807 22.012 9.68694 21.2821 6.86592C20.8218 5.08649 20.0947 3.84446 18.7572 2.5527C16.5269 0.398257 13.2233 -0.480109 10.1179 0.255729ZM11.5221 7.04783L11.523 9.92676L13.6958 11.2189L15.8684 12.511L16.1638 11.9699C16.3262 11.6723 16.4623 11.3799 16.4663 11.3203C16.4702 11.2606 15.705 10.735 14.7658 10.1522L13.0582 9.09279V6.63076V4.1689H12.2897H11.5213L11.5221 7.04783Z" fill="#9D9D9C"/>
</svg>
