<svg width="16" height="16" viewBox="0 0 16 16" fill="none" xmlns="http://www.w3.org/2000/svg">
<path fill-rule="evenodd" clip-rule="evenodd" d="M7.51675 0.0405951C5.56195 0.489799 4.84257 3.13675 6.25329 4.68955C6.71872 5.20198 7.19387 5.40324 7.98979 5.42542L8.70368 5.44526L8.95977 5.90359C9.10058 6.15567 9.36052 6.64296 9.53747 6.98638L9.8591 7.61086L9.40437 7.53585C9.06164 7.4793 8.89182 7.50243 8.71506 7.62995C8.4289 7.83631 8.40018 8.31787 8.65886 8.57547C8.91553 8.83126 11.1425 9.35664 11.3539 9.21129C11.5898 9.04907 11.7152 8.72251 12.0094 7.50391C12.3042 6.28308 12.2614 5.94783 11.794 5.81871C11.4 5.70986 11.1994 5.89531 10.9808 6.57071L10.8789 6.88559L10.3127 5.82805C9.79597 4.86291 9.75857 4.75193 9.88435 4.55831C10.6585 3.36655 10.6753 1.97767 9.92762 0.984411C9.40919 0.295646 8.29869 -0.139023 7.51675 0.0405951ZM7.46856 1.41791C7.17045 1.56252 6.847 1.99475 6.74561 2.3839C6.47439 3.42469 7.41112 4.41434 8.36847 4.0986C9.70036 3.65937 9.50827 1.47255 8.1281 1.36179C7.87134 1.34121 7.57458 1.36646 7.46856 1.41791ZM4.25898 7.05641C3.71298 7.21947 3.20332 7.41023 3.1265 7.48036C2.94473 7.6465 2.94656 8.26185 3.1293 8.42885C3.29922 8.58406 3.59732 8.60687 4.01832 8.49675L4.32702 8.41611L3.75703 9.5022L3.18693 10.5883L2.56123 10.5634C1.11484 10.5056 -0.00230956 11.6785 3.5856e-06 13.2523C0.00222035 14.7822 1.05576 15.9839 2.40856 15.9997C3.12612 16.0082 3.61043 15.8071 4.12617 15.2864C4.69212 14.7148 4.94887 14.0774 4.94309 13.2581C4.93856 12.6126 4.66474 11.7636 4.37608 11.4999C4.3011 11.4314 4.2398 11.3407 4.2398 11.2984C4.2398 11.2559 4.49849 10.7283 4.81471 10.1259C5.26982 9.25882 5.40331 9.07305 5.45545 9.23463C5.69024 9.96265 5.78594 10.1253 6.01716 10.1893C6.36654 10.2857 6.7457 9.99257 6.7457 9.6258C6.7457 9.22848 6.16491 7.14489 5.99114 6.91891C5.80079 6.67128 5.45834 6.69844 4.25898 7.05641ZM12.4797 10.8021C11.9528 11.0722 11.4239 11.6629 11.214 12.2159L11.0802 12.5684H9.915H8.74975L9.04882 12.1934C9.38423 11.7729 9.417 11.5571 9.19792 11.2129C9.09547 11.0517 8.94907 10.977 8.73587 10.977C8.46456 10.977 8.31421 11.1091 7.5848 11.9881C6.95784 12.7435 6.7457 13.0726 6.7457 13.2898C6.7457 13.6957 8.41348 15.5391 8.78069 15.5391C9.34182 15.5391 9.5208 14.8266 9.09846 14.2741L8.84893 13.9477H9.96136H11.0738L11.2561 14.3986C11.4828 14.959 12.1809 15.6771 12.6812 15.8646C13.1759 16.0499 14.0311 16.0345 14.4632 15.8326C15.7752 15.2195 16.3787 13.4505 15.7498 12.0613C15.1444 10.724 13.7097 10.1716 12.4797 10.8021ZM1.9335 12.0117C0.709849 12.6984 1.09306 14.6903 2.44885 14.6903C3.79327 14.6903 4.26139 12.6996 3.07378 12.0327C2.61925 11.7774 2.35931 11.7726 1.9335 12.0117ZM12.9388 11.9946C12.0392 12.4991 12.0189 14.0216 12.905 14.526C14.088 15.1994 15.3288 13.7237 14.6038 12.5056C14.2545 11.9188 13.4915 11.6846 12.9388 11.9946Z" fill="white"/>
</svg>
