<svg width="25" height="25" viewBox="0 0 25 25" fill="none" xmlns="http://www.w3.org/2000/svg">
<path fill-rule="evenodd" clip-rule="evenodd" d="M10.5571 0.0211438C10.5328 0.0458186 10.2171 0.0841647 9.85545 0.106339C9.4938 0.128513 9.05895 0.173528 8.88915 0.206372C8.71935 0.239216 8.47249 0.281841 8.34058 0.301125C8.20867 0.320409 8.0872 0.357866 8.07065 0.384375C8.05409 0.410884 7.96776 0.432558 7.87879 0.432558C7.78982 0.432558 7.70142 0.457566 7.68233 0.488132C7.66325 0.518697 7.59106 0.543705 7.52185 0.543705C7.45264 0.543705 7.37204 0.563601 7.34274 0.587942C7.31338 0.612284 7.18838 0.663912 7.06489 0.702758C6.24998 0.958954 4.7547 1.78317 4.20315 2.28011C4.11003 2.36403 4.01174 2.43283 3.98474 2.43294C3.91812 2.43333 2.49429 3.85519 2.30592 4.1095C2.22295 4.22148 2.12315 4.34652 2.08409 4.38737C2.04502 4.42827 1.97721 4.53041 1.93343 4.6145C1.88965 4.69852 1.83279 4.76732 1.80713 4.76732C1.78148 4.76732 1.76049 4.80011 1.76049 4.84018C1.76049 4.88031 1.71626 4.96172 1.66226 5.02113C1.60826 5.08054 1.50279 5.24159 1.42791 5.37897C1.35303 5.51635 1.27692 5.64122 1.25873 5.65651C1.21377 5.69435 0.828375 6.50896 0.680357 6.87913C0.649765 6.95555 0.602447 7.06147 0.575167 7.11454C0.547887 7.16762 0.525603 7.25993 0.525603 7.31967C0.525603 7.37941 0.500344 7.44376 0.469472 7.46266C0.4386 7.48155 0.413341 7.55658 0.413341 7.62938C0.413341 7.70218 0.388082 7.77721 0.357209 7.7961C0.326337 7.815 0.301078 7.89897 0.301078 7.98278C0.301078 8.06658 0.278401 8.15883 0.250672 8.1879C0.223 8.21691 0.186571 8.34073 0.169731 8.46299C0.152948 8.58525 0.107145 8.83534 0.0680215 9.01873C0.0194119 9.24653 -0.00208636 9.86284 0.000158883 10.9638C0.0032461 12.4722 0.0213203 12.7169 0.18281 13.4369C0.213682 13.5744 0.254826 13.762 0.274248 13.8537C0.293669 13.9454 0.331221 14.0704 0.357771 14.1315C0.384265 14.1927 0.459817 14.4052 0.525603 14.6039C0.773198 15.3515 1.26541 16.3241 1.77542 17.0736C1.90149 17.2588 2.02038 17.4229 2.03963 17.4382C2.05888 17.4535 2.13584 17.5535 2.21066 17.6605C2.57007 18.1745 3.47676 19.0722 4.17413 19.6044C4.31306 19.7104 4.43935 19.8104 4.45479 19.8265C4.47022 19.8426 4.55229 19.8913 4.63721 19.9346C4.72208 19.9779 4.79157 20.0342 4.79157 20.0595C4.79157 20.0849 4.82469 20.1057 4.86516 20.1057C4.90569 20.1057 4.98792 20.1495 5.04793 20.203C5.24051 20.3746 6.68033 21.1061 6.82554 21.1061C6.85209 21.1061 6.97839 21.1561 7.1062 21.2172C7.23401 21.2783 7.38287 21.3284 7.43698 21.3284C7.49109 21.3284 7.54924 21.3506 7.56625 21.3778C7.5832 21.405 7.67941 21.4407 7.78006 21.4571C7.88064 21.4736 8.07665 21.5154 8.21558 21.5501C8.56786 21.6381 8.95404 21.7106 9.47853 21.7875C10.0028 21.8643 11.6245 21.8755 12.1278 21.8059L12.4757 21.7577L12.4476 21.5847C12.4322 21.4896 12.3968 21.3242 12.3692 21.2172C12.3416 21.1102 12.3061 20.8908 12.2904 20.7296C12.2748 20.5684 12.2447 20.4088 12.2236 20.3749C12.1965 20.3315 12.0509 20.3276 11.7299 20.3618C11.1563 20.4227 10.5809 20.4147 9.89951 20.336C9.03206 20.2359 8.86395 20.2082 8.80776 20.1556C8.77846 20.1282 8.69179 20.1057 8.61529 20.1057C8.47176 20.1057 8.14917 20.0179 7.97781 19.9322C7.9242 19.9054 7.84174 19.8834 7.79459 19.8834C7.74744 19.8834 7.66499 19.8614 7.61138 19.8344C7.55778 19.8074 7.45079 19.7603 7.37361 19.7298C6.79495 19.5014 5.46004 18.7592 5.35289 18.6063C5.33745 18.5843 5.29681 18.5563 5.26257 18.5441C4.99359 18.448 3.72345 17.2075 3.333 16.6595C3.25706 16.5529 3.15002 16.4172 3.09512 16.3579C3.04028 16.2986 2.99538 16.2194 2.99538 16.1819C2.99538 16.1444 2.97292 16.1054 2.94548 16.0951C2.87486 16.069 2.6422 15.6642 2.34386 15.0485C2.20314 14.7581 2.06483 14.4771 2.03654 14.4241C2.0082 14.371 1.98501 14.2787 1.98501 14.2189C1.98501 14.1592 1.95976 14.0949 1.92888 14.076C1.89801 14.0571 1.87275 13.982 1.87275 13.9092C1.87275 13.8364 1.85041 13.7632 1.82308 13.7465C1.7958 13.7298 1.75942 13.647 1.74236 13.5626C1.72524 13.4781 1.68252 13.2965 1.64739 13.159C1.49746 12.5719 1.46445 12.1703 1.46445 10.936C1.46445 9.70173 1.49746 9.30016 1.64739 8.71307C1.68252 8.57553 1.72524 8.39391 1.74236 8.3095C1.75942 8.22508 1.7958 8.14227 1.82308 8.1256C1.85041 8.10887 1.87275 8.03563 1.87275 7.96282C1.87275 7.89002 1.89801 7.815 1.92888 7.7961C1.95976 7.77721 1.98501 7.72547 1.98501 7.68106C1.98501 7.63672 2.03817 7.48189 2.10311 7.33701C2.28425 6.93321 2.56867 6.35446 2.60133 6.32339C2.61739 6.30811 2.69176 6.18307 2.76664 6.04552C2.84152 5.90798 2.9173 5.78294 2.93503 5.76765C2.95277 5.75237 3.05622 5.61171 3.16489 5.45511C3.57948 4.85763 4.1473 4.24554 4.80802 3.68391C4.98685 3.53192 5.1763 3.38426 5.229 3.3558C5.28171 3.3274 5.33745 3.28783 5.35289 3.26788C5.39583 3.21253 5.90151 2.87781 5.94226 2.87781C5.96202 2.87781 6.08377 2.80734 6.21282 2.72126C6.46238 2.55476 6.77441 2.40654 7.42974 2.14318C7.50692 2.11217 7.61391 2.06471 7.66751 2.0377C7.72112 2.01069 7.81435 1.98863 7.87469 1.98863C7.93503 1.98863 7.99824 1.96651 8.01513 1.93944C8.03197 1.91244 8.11561 1.87642 8.20087 1.85953C8.28613 1.84258 8.46957 1.80045 8.6085 1.76589C9.7323 1.48613 11.4446 1.43828 12.6499 1.65285C12.8197 1.68303 13.0536 1.72371 13.1697 1.74321C13.2857 1.76266 13.3946 1.80084 13.4115 1.82802C13.4285 1.85525 13.4918 1.87748 13.5521 1.87748C13.6125 1.87748 13.7057 1.90004 13.7593 1.92766C13.8129 1.95523 13.9704 2.01036 14.1094 2.05009C14.2483 2.08988 14.4448 2.16735 14.5461 2.22226C14.6474 2.27717 14.7673 2.32207 14.8127 2.32207C14.8581 2.32207 14.8952 2.34708 14.8952 2.37765C14.8952 2.40821 14.9323 2.43322 14.9777 2.43322C15.0231 2.43322 15.1494 2.48324 15.2584 2.54437C15.3673 2.6055 15.5492 2.70753 15.6626 2.77105C15.8888 2.89787 16.5344 3.32268 16.5791 3.37414C16.5946 3.39187 16.7082 3.48023 16.8317 3.57054C17.1921 3.83396 18.2711 4.94227 18.5157 5.30017C18.6391 5.48084 18.7844 5.67718 18.8384 5.73648C18.8924 5.79572 18.9366 5.87697 18.9366 5.91709C18.9366 5.95716 18.9556 5.99017 18.9787 5.9904C19.0019 5.99062 19.048 6.04691 19.0812 6.11544C19.1145 6.18396 19.2507 6.4526 19.3839 6.71241C19.5171 6.97222 19.6507 7.24731 19.6808 7.32372C19.7109 7.40014 19.7579 7.50606 19.7852 7.55914C19.8125 7.61221 19.8347 7.70452 19.8347 7.76426C19.8347 7.824 19.857 7.88652 19.8842 7.90314C19.9114 7.91981 19.9475 7.99006 19.9645 8.05925C19.9814 8.12849 20.0245 8.28515 20.06 8.40742C20.1265 8.63566 20.1843 8.91492 20.2958 9.54668C20.3702 9.96832 20.3858 11.8148 20.3175 12.1121L20.2706 12.3158L20.6561 12.3451C21.2087 12.387 21.5387 12.4404 21.6001 12.4978C21.6936 12.5852 21.7271 12.5532 21.7947 12.3115C21.8756 12.0226 21.8443 9.67267 21.7535 9.21324C21.7202 9.04513 21.6663 8.78254 21.6337 8.62971C21.601 8.47688 21.5584 8.25748 21.5389 8.14211C21.5195 8.02674 21.4817 7.91898 21.455 7.90264C21.4282 7.8863 21.4064 7.8115 21.4064 7.73647C21.4064 7.66145 21.3841 7.55663 21.3568 7.50356C21.2763 7.34684 21.1942 7.14394 21.1154 6.90692C20.9841 6.51168 20.2454 5.11794 20.075 4.94399C20.0355 4.90359 20.0031 4.84907 20.0031 4.8229C20.0031 4.79672 19.9707 4.7422 19.9311 4.7018C19.8915 4.66146 19.798 4.54086 19.7233 4.43388C19.6487 4.3269 19.5736 4.22687 19.5564 4.21158C19.5394 4.1963 19.4534 4.08827 19.3655 3.97151C19.1621 3.70147 18.1859 2.73132 17.9163 2.53131C17.8036 2.44772 17.6777 2.34613 17.6365 2.30557C17.527 2.19792 16.5932 1.58599 16.2985 1.42872C16.1595 1.35458 16.0333 1.28139 16.0178 1.26606C16.0024 1.25077 15.9266 1.21015 15.8494 1.17586C15.7722 1.14157 15.5828 1.05715 15.4284 0.988297C15.0379 0.814073 14.7956 0.718096 14.4461 0.599279C14.3381 0.562545 14.1992 0.511862 14.1374 0.486687C14.0757 0.461512 13.9494 0.425222 13.8568 0.405993C13.7641 0.386765 13.5747 0.346029 13.4358 0.315463C12.9243 0.203037 12.5525 0.146741 12.0044 0.0988362C11.6957 0.0718828 11.2537 0.0332589 11.0221 0.01303C10.7906 -0.00714331 10.5813 -0.00347543 10.5571 0.0211438ZM10.2644 3.94389C9.84686 4.01335 9.58916 4.11172 9.11553 4.38247C8.72205 4.60738 8.26363 5.22737 7.98841 5.90659C7.85449 6.23709 7.77281 6.9466 7.76939 7.80805C7.76681 8.47561 7.75665 8.54768 7.65797 8.59998C7.59825 8.6316 7.49957 8.6575 7.43872 8.6575C7.11282 8.6575 6.60181 9.09837 6.35241 9.5947L6.22292 9.85234V12.442C6.22292 14.2314 6.24228 15.0729 6.28556 15.1651C6.32003 15.2385 6.38177 15.3685 6.42275 15.454C6.46372 15.5394 6.59967 15.7145 6.7249 15.843C6.94157 16.0654 7.0275 16.1198 7.39028 16.2642C7.49923 16.3076 8.39301 16.3265 10.3091 16.326L13.0709 16.3253L13.1972 16.1323C13.2667 16.0261 13.3235 15.9246 13.3235 15.9068C13.3235 15.8726 13.6582 15.3739 13.7131 15.3264C13.7307 15.3111 13.8186 15.2012 13.9083 15.082C14.1168 14.8054 14.8134 14.1149 15.0964 13.9044C15.216 13.8154 15.3713 13.6942 15.4413 13.6353L15.5688 13.5279V11.7345C15.5688 10.5356 15.5478 9.88941 15.5056 9.78548C15.3549 9.4143 15.3044 9.33745 15.037 9.0728C14.7347 8.77337 14.6022 8.69757 14.2497 8.62215L14.0252 8.57414L13.9885 7.57381C13.9499 6.52085 13.9058 6.12049 13.8227 6.0697C13.7951 6.0528 13.7726 5.99006 13.7726 5.93032C13.7726 5.82556 13.7534 5.77432 13.6129 5.50368C13.2302 4.76627 12.8111 4.39837 11.9483 4.04247C11.6627 3.92466 10.7138 3.86908 10.2644 3.94389ZM10.2924 5.48662C10.2461 5.51185 10.1371 5.56548 10.0502 5.60582C9.96333 5.64617 9.82009 5.74743 9.73191 5.8309C9.58411 5.97072 9.52209 6.07937 9.34612 6.50662C9.30682 6.60193 9.28207 7.02685 9.28207 7.60504V8.54807L10.8958 8.53329L12.5096 8.51856L12.5069 7.68496C12.5054 7.22647 12.484 6.75131 12.4594 6.62905C12.3564 6.11683 12.1158 5.79077 11.6834 5.57748C11.4334 5.45411 11.3224 5.43466 10.8848 5.43749C10.6053 5.43927 10.3387 5.46139 10.2924 5.48662ZM10.4047 10.1548C10.3584 10.1801 10.2447 10.2337 10.1521 10.274C9.92966 10.3708 9.39433 10.9183 9.39433 11.049C9.39433 11.1055 9.36907 11.1672 9.3382 11.1861C9.30733 11.205 9.28207 11.3667 9.28207 11.5454C9.28207 11.9618 9.43239 12.2479 9.84338 12.6137L10.1521 12.8885L10.1802 13.8434L10.2082 14.7984H10.8818H11.5554L11.5868 13.7981C11.604 13.2479 11.6229 12.7915 11.6289 12.7839C11.6348 12.7762 11.6712 12.7694 11.7097 12.7687C11.8028 12.767 12.1429 12.4563 12.3114 12.2191C12.4252 12.0587 12.4461 11.9634 12.4461 11.6023C12.4461 11.2425 12.4232 11.1367 12.3004 10.9306C12.0821 10.5639 11.9182 10.4299 11.3457 10.15C11.2228 10.09 10.5172 10.0935 10.4047 10.1548ZM18.963 14.7428C18.9485 14.7887 18.9214 14.87 18.9027 14.9235C18.8841 14.9769 18.8453 15.1708 18.8164 15.3542C18.6996 16.097 18.7353 16.0336 18.327 16.221C17.9592 16.3898 17.9519 16.3908 17.7719 16.295C17.6716 16.2417 17.5895 16.177 17.5895 16.1513C17.5895 16.1255 17.5564 16.1044 17.5159 16.1044C17.4754 16.1044 17.3924 16.0606 17.3313 16.0072C17.0865 15.7925 16.8575 15.6598 16.7319 15.6598C16.575 15.6598 15.6249 16.5883 15.6249 16.7417C15.6249 16.8306 15.7803 17.1527 15.8536 17.2159C15.8714 17.2312 15.9914 17.3986 16.1203 17.588C16.3491 17.9242 16.4115 18.1051 16.2985 18.1051C16.2676 18.1051 16.2423 18.1536 16.2423 18.2129C16.2423 18.2723 16.2171 18.3363 16.1862 18.3552C16.1553 18.374 16.1301 18.4342 16.1301 18.4888C16.1301 18.5433 16.0858 18.6267 16.0318 18.674C15.9386 18.7556 15.8198 18.7805 15.1345 18.8618C14.9268 18.8865 14.7992 18.9377 14.6995 19.0364C14.5672 19.1674 14.5584 19.2115 14.5584 19.7438C14.5584 20.505 14.6084 20.6377 14.9123 20.6823C15.7066 20.7988 16.021 20.884 16.0767 20.9977C16.0984 21.042 16.1698 21.1869 16.2354 21.3197C16.3594 21.5709 16.3877 21.7504 16.3082 21.7822C16.2827 21.7924 16.1269 21.9996 15.9621 22.2427C15.5436 22.8596 15.5497 22.8999 16.1482 23.4819C16.6016 23.9228 16.6462 23.9521 16.8143 23.9188C16.9134 23.8992 17.0084 23.8627 17.0254 23.8377C17.0625 23.7832 17.908 23.2179 17.9524 23.2179C17.9844 23.2179 18.4484 23.4147 18.5998 23.4924C18.6816 23.5344 18.7214 23.6682 18.8236 24.246C18.9022 24.6904 18.9499 24.8506 19.0259 24.9258C19.1252 25.0241 20.4718 25.025 20.5495 24.9268C20.6415 24.8103 20.7097 24.521 20.8255 23.7557C20.8501 23.5928 20.8922 23.5298 21.0057 23.4857C21.0872 23.4541 21.1977 23.4059 21.2513 23.3786C21.3049 23.3514 21.387 23.329 21.4337 23.329C21.4804 23.329 21.5187 23.304 21.5187 23.2734C21.5187 23.2429 21.5692 23.2179 21.6309 23.2179C21.6927 23.2179 21.7432 23.2412 21.7432 23.2697C21.7432 23.2982 21.7935 23.3374 21.8551 23.3567C21.9167 23.376 21.9988 23.4215 22.0375 23.4577C22.1831 23.5936 22.8021 23.9959 22.8656 23.9959C22.9736 23.9959 23.9887 22.9532 23.986 22.845C23.9846 22.7903 23.8111 22.498 23.6003 22.1955L23.2171 21.6455L23.3169 21.4452C23.3718 21.3351 23.4463 21.1662 23.4825 21.07C23.5316 20.9395 23.5934 20.886 23.7263 20.8595C24.3294 20.739 24.4858 20.7091 24.662 20.6804C24.9922 20.6265 24.9988 20.6087 24.9988 19.772C24.9988 18.8696 25.0781 18.943 23.945 18.796C23.7096 18.7655 23.6262 18.7259 23.538 18.6033C23.477 18.5185 23.4271 18.4107 23.4271 18.3638C23.4271 18.3168 23.4047 18.2646 23.3772 18.2478C23.3498 18.231 23.3107 18.1518 23.2904 18.0717C23.2615 17.9579 23.3054 17.8474 23.4921 17.5637C23.6233 17.3643 23.7571 17.1723 23.7894 17.1369C23.8959 17.0204 23.9884 16.83 23.9884 16.7274C23.9884 16.672 23.7736 16.4091 23.5111 16.1432C23.0956 15.7225 23.0089 15.6598 22.8422 15.6598C22.7368 15.6598 22.6423 15.6805 22.6319 15.7057C22.6165 15.7435 21.9147 16.2276 21.7151 16.3382C21.6843 16.3552 21.5959 16.3431 21.5187 16.3112C21.4415 16.2793 21.2647 16.2119 21.1258 16.1614C20.8916 16.0762 20.8699 16.0514 20.8289 15.823C20.7543 15.4071 20.6836 15.0295 20.6448 14.8401L20.6078 14.6595H19.7985C19.1283 14.6595 18.9847 14.6738 18.963 14.7428ZM18.9688 18.0553C18.6329 18.2271 18.1508 18.671 18.1508 18.8086C18.1508 18.8496 18.1317 18.8831 18.1084 18.8831C18.0521 18.8831 17.9591 19.1203 17.8712 19.4881C17.7437 20.022 17.9733 20.708 18.4315 21.1616C18.8912 21.6168 19.5848 21.8436 20.1218 21.7143C20.2881 21.6742 20.4481 21.6211 20.4774 21.5961C20.5068 21.5711 20.5762 21.5507 20.6318 21.5507C20.6874 21.5507 20.7328 21.5256 20.7328 21.4951C20.7328 21.4645 20.7687 21.4395 20.8126 21.4395C20.9416 21.4395 21.3722 20.976 21.5159 20.6825C21.5889 20.5334 21.6699 20.368 21.6959 20.3149C21.7219 20.2618 21.7432 20.0289 21.7432 19.7973C21.7432 19.4375 21.7171 19.3226 21.5635 19.0073C21.3666 18.6032 21.0723 18.2759 20.7974 18.1554C20.7002 18.1128 20.6206 18.0591 20.6206 18.0359C20.6206 18.0128 20.5716 17.9939 20.5116 17.9939C20.4517 17.9939 20.3871 17.9689 20.368 17.9383C20.3488 17.9077 20.1021 17.8833 19.8174 17.8839C19.353 17.885 19.2683 17.9021 18.9688 18.0553Z" fill="#9D9D9C"/>
</svg>
