<svg width="16" height="16" viewBox="0 0 16 16" fill="none" xmlns="http://www.w3.org/2000/svg">
<path fill-rule="evenodd" clip-rule="evenodd" d="M5.21382 0.0174141C3.79362 0.249674 2.6818 0.805505 1.7462 1.75086C0.972961 2.5322 0.46325 3.4277 0.186445 4.49126C-0.394565 6.72364 0.409956 9.15281 2.21499 10.6164C2.53823 10.8785 3.09989 11.2457 3.12976 11.2143C3.13586 11.208 3.12209 11.1043 3.09913 10.9839C3.02201 10.5792 2.98068 9.99004 3.01744 9.81893L3.0511 9.66225L2.68424 9.29151C2.14441 8.74597 1.79962 8.20314 1.56816 7.53434C1.36948 6.96025 1.31991 6.65359 1.31991 5.99798C1.31991 5.35653 1.37164 5.02317 1.55516 4.48188C2.01023 3.13961 3.13342 2.01832 4.47796 1.56402C5.02018 1.38081 5.3541 1.32917 5.99664 1.32917C6.65336 1.32917 6.96054 1.37865 7.5356 1.577C8.20516 1.80795 8.74932 2.1523 9.29482 2.69025L9.66525 3.05556L9.85795 3.02167C10.0514 2.98763 10.7984 3.02786 11.1319 3.09029C11.2094 3.10479 11.2764 3.11314 11.2808 3.10885C11.2975 3.09235 10.9822 2.595 10.8114 2.36837C9.99491 1.28559 8.77118 0.47165 7.484 0.155239C6.93944 0.0213528 6.69463 -0.00384259 5.98098 0.000440008C5.6021 0.00275323 5.25687 0.0103806 5.21382 0.0174141ZM9.36556 4.02971C7.82086 4.20492 6.39957 4.96084 5.41453 6.13105C3.37203 8.55756 3.55386 12.1413 5.82971 14.3133C7.34262 15.7572 9.41547 16.317 11.4294 15.8254C13.3179 15.3645 14.8787 14.0008 15.5929 12.1876C16.1405 10.7976 16.1354 9.19054 15.5792 7.79129C14.8026 5.83787 13.0832 4.45403 10.9597 4.07334C10.628 4.01389 9.72334 3.98913 9.36556 4.02971ZM11.9988 6.22461C11.8592 9.3821 9.3865 11.8507 6.22366 11.99C5.97823 12.0007 5.77764 12.018 5.77789 12.0282C5.77814 12.0384 5.83578 12.1523 5.90602 12.2812C6.29207 12.99 6.91792 13.6273 7.66016 14.0675C7.99117 14.2638 8.41039 14.4322 8.87601 14.5559L9.30014 14.6685L10.0047 14.6696C10.7856 14.6709 10.9709 14.6418 11.602 14.4188C13.1431 13.8744 14.2712 12.5761 14.6272 10.937C14.7095 10.5578 14.7107 9.47444 14.6292 9.0927C14.4921 8.45056 14.2025 7.7886 13.8298 7.26538C13.6027 6.94656 13.0939 6.43865 12.7745 6.21186C12.5525 6.05421 12.0859 5.78075 12.0371 5.7796C12.0268 5.77935 12.0096 5.9796 11.9988 6.22461Z" fill="white"/>
</svg>
